<mxfile host="app.diagrams.net" modified="2021-02-14T09:23:36.719Z" agent="5.0 (Windows NT 10.0; Win64; x64) AppleWebKit/537.36 (KHTML, like Gecko) Chrome/88.0.4324.150 Safari/537.36 Edg/88.0.705.63" etag="X8r4vO93jLPLq6TjfMgx" version="14.3.1" type="github" pages="3">
  <diagram id="65DGkv6XezY2BOXHAInK" name="Database">
    <mxGraphModel dx="2480" dy="1489" grid="1" gridSize="10" guides="1" tooltips="1" connect="1" arrows="1" fold="1" page="1" pageScale="1" pageWidth="850" pageHeight="1100" math="0" shadow="0">
      <root>
        <mxCell id="0" />
        <mxCell id="1" parent="0" />
        <mxCell id="I20sPOyqvfiznxd25Rig-16" value="Databases" style="rounded=0;whiteSpace=wrap;html=1;glass=0;fillColor=#76608a;fontColor=#ffffff;fontSize=16;strokeColor=none;" vertex="1" parent="1">
          <mxGeometry x="190" y="160" width="470" height="40" as="geometry" />
        </mxCell>
        <mxCell id="I20sPOyqvfiznxd25Rig-17" value="Users" style="rounded=0;whiteSpace=wrap;html=1;glass=0;fontSize=15;fillColor=#1ba1e2;fontColor=#ffffff;strokeColor=none;" vertex="1" parent="1">
          <mxGeometry x="190" y="200" width="150" height="30" as="geometry" />
        </mxCell>
        <mxCell id="I20sPOyqvfiznxd25Rig-18" value="Products" style="rounded=0;whiteSpace=wrap;html=1;glass=0;fontSize=15;fillColor=#1ba1e2;fontColor=#ffffff;strokeColor=none;" vertex="1" parent="1">
          <mxGeometry x="350" y="200" width="150" height="30" as="geometry" />
        </mxCell>
        <mxCell id="I20sPOyqvfiznxd25Rig-19" value="Orders" style="rounded=0;whiteSpace=wrap;html=1;fontSize=15;fillColor=#1ba1e2;fontColor=#ffffff;strokeColor=none;" vertex="1" parent="1">
          <mxGeometry x="510" y="200" width="150" height="30" as="geometry" />
        </mxCell>
        <mxCell id="I20sPOyqvfiznxd25Rig-20" value="Name" style="rounded=0;whiteSpace=wrap;html=1;glass=0;fontSize=12;fillColor=#b1ddf0;strokeColor=none;" vertex="1" parent="1">
          <mxGeometry x="190" y="230" width="150" height="30" as="geometry" />
        </mxCell>
        <mxCell id="I20sPOyqvfiznxd25Rig-21" value="Username/Email" style="rounded=0;whiteSpace=wrap;html=1;glass=0;fontSize=12;fillColor=#b1ddf0;strokeColor=none;" vertex="1" parent="1">
          <mxGeometry x="190" y="260" width="150" height="30" as="geometry" />
        </mxCell>
        <mxCell id="I20sPOyqvfiznxd25Rig-22" value="Password" style="rounded=0;whiteSpace=wrap;html=1;glass=0;fontSize=12;fillColor=#b1ddf0;strokeColor=none;" vertex="1" parent="1">
          <mxGeometry x="190" y="290" width="150" height="30" as="geometry" />
        </mxCell>
        <mxCell id="I20sPOyqvfiznxd25Rig-23" value="Role (Admin/Staff/Customer)" style="rounded=0;whiteSpace=wrap;html=1;glass=0;fontSize=12;fillColor=#b1ddf0;strokeColor=none;" vertex="1" parent="1">
          <mxGeometry x="190" y="320" width="150" height="30" as="geometry" />
        </mxCell>
        <mxCell id="I20sPOyqvfiznxd25Rig-24" value="Orders" style="rounded=0;whiteSpace=wrap;html=1;glass=0;fontSize=12;fillColor=#b1ddf0;strokeColor=none;" vertex="1" parent="1">
          <mxGeometry x="190" y="350" width="150" height="30" as="geometry" />
        </mxCell>
        <mxCell id="I20sPOyqvfiznxd25Rig-26" value="Name" style="rounded=0;whiteSpace=wrap;html=1;glass=0;fontSize=12;fillColor=#b1ddf0;strokeColor=none;" vertex="1" parent="1">
          <mxGeometry x="350" y="230" width="150" height="30" as="geometry" />
        </mxCell>
        <mxCell id="I20sPOyqvfiznxd25Rig-27" value="Description" style="rounded=0;whiteSpace=wrap;html=1;glass=0;fontSize=12;fillColor=#b1ddf0;strokeColor=none;" vertex="1" parent="1">
          <mxGeometry x="350" y="260" width="150" height="30" as="geometry" />
        </mxCell>
        <mxCell id="I20sPOyqvfiznxd25Rig-28" value="Price" style="rounded=0;whiteSpace=wrap;html=1;glass=0;fontSize=12;fillColor=#b1ddf0;strokeColor=none;" vertex="1" parent="1">
          <mxGeometry x="350" y="290" width="150" height="30" as="geometry" />
        </mxCell>
        <mxCell id="I20sPOyqvfiznxd25Rig-29" value="Image" style="rounded=0;whiteSpace=wrap;html=1;glass=0;fontSize=12;fillColor=#b1ddf0;strokeColor=none;" vertex="1" parent="1">
          <mxGeometry x="350" y="320" width="150" height="30" as="geometry" />
        </mxCell>
        <mxCell id="I20sPOyqvfiznxd25Rig-30" value="Rating" style="rounded=0;whiteSpace=wrap;html=1;glass=0;fontSize=12;fillColor=#b1ddf0;strokeColor=none;" vertex="1" parent="1">
          <mxGeometry x="350" y="350" width="150" height="30" as="geometry" />
        </mxCell>
        <mxCell id="I20sPOyqvfiznxd25Rig-32" value="Reviews" style="rounded=0;whiteSpace=wrap;html=1;glass=0;fontSize=12;fillColor=#b1ddf0;strokeColor=none;" vertex="1" parent="1">
          <mxGeometry x="350" y="380" width="150" height="30" as="geometry" />
        </mxCell>
        <mxCell id="I20sPOyqvfiznxd25Rig-33" value="Customer" style="rounded=0;whiteSpace=wrap;html=1;glass=0;fontSize=12;fillColor=#b1ddf0;strokeColor=none;" vertex="1" parent="1">
          <mxGeometry x="510" y="230" width="150" height="30" as="geometry" />
        </mxCell>
        <mxCell id="I20sPOyqvfiznxd25Rig-34" value="Items" style="rounded=0;whiteSpace=wrap;html=1;glass=0;fontSize=12;fillColor=#b1ddf0;strokeColor=none;" vertex="1" parent="1">
          <mxGeometry x="510" y="260" width="150" height="30" as="geometry" />
        </mxCell>
        <mxCell id="I20sPOyqvfiznxd25Rig-35" value="Selling Price" style="rounded=0;whiteSpace=wrap;html=1;glass=0;fontSize=12;fillColor=#b1ddf0;strokeColor=none;" vertex="1" parent="1">
          <mxGeometry x="510" y="290" width="150" height="30" as="geometry" />
        </mxCell>
        <mxCell id="I20sPOyqvfiznxd25Rig-36" value="Delivery Charges" style="rounded=0;whiteSpace=wrap;html=1;glass=0;fontSize=12;fillColor=#b1ddf0;strokeColor=none;" vertex="1" parent="1">
          <mxGeometry x="510" y="320" width="150" height="30" as="geometry" />
        </mxCell>
        <mxCell id="I20sPOyqvfiznxd25Rig-37" value="Total Charges" style="rounded=0;whiteSpace=wrap;html=1;glass=0;fontSize=12;fillColor=#b1ddf0;strokeColor=none;" vertex="1" parent="1">
          <mxGeometry x="510" y="350" width="150" height="30" as="geometry" />
        </mxCell>
        <mxCell id="I20sPOyqvfiznxd25Rig-38" value="Payment Method&lt;span style=&quot;color: rgba(0 , 0 , 0 , 0) ; font-family: monospace ; font-size: 0px&quot;&gt;%3CmxGraphModel%3E%3Croot%3E%3CmxCell%20id%3D%220%22%2F%3E%3CmxCell%20id%3D%221%22%20parent%3D%220%22%2F%3E%3CmxCell%20id%3D%222%22%20value%3D%22Name%22%20style%3D%22rounded%3D0%3BwhiteSpace%3Dwrap%3Bhtml%3D1%3Bglass%3D0%3BfontSize%3D12%3BfillColor%3D%23b1ddf0%3BstrokeColor%3Dnone%3B%22%20vertex%3D%221%22%20parent%3D%221%22%3E%3CmxGeometry%20x%3D%22440%22%20y%3D%22110%22%20width%3D%22150%22%20height%3D%2230%22%20as%3D%22geometry%22%2F%3E%3C%2FmxCell%3E%3CmxCell%20id%3D%223%22%20value%3D%22Description%22%20style%3D%22rounded%3D0%3BwhiteSpace%3Dwrap%3Bhtml%3D1%3Bglass%3D0%3BfontSize%3D12%3BfillColor%3D%23b1ddf0%3BstrokeColor%3Dnone%3B%22%20vertex%3D%221%22%20parent%3D%221%22%3E%3CmxGeometry%20x%3D%22440%22%20y%3D%22140%22%20width%3D%22150%22%20height%3D%2230%22%20as%3D%22geometry%22%2F%3E%3C%2FmxCell%3E%3CmxCell%20id%3D%224%22%20value%3D%22Price%22%20style%3D%22rounded%3D0%3BwhiteSpace%3Dwrap%3Bhtml%3D1%3Bglass%3D0%3BfontSize%3D12%3BfillColor%3D%23b1ddf0%3BstrokeColor%3Dnone%3B%22%20vertex%3D%221%22%20parent%3D%221%22%3E%3CmxGeometry%20x%3D%22440%22%20y%3D%22170%22%20width%3D%22150%22%20height%3D%2230%22%20as%3D%22geometry%22%2F%3E%3C%2FmxCell%3E%3CmxCell%20id%3D%225%22%20value%3D%22Image%22%20style%3D%22rounded%3D0%3BwhiteSpace%3Dwrap%3Bhtml%3D1%3Bglass%3D0%3BfontSize%3D12%3BfillColor%3D%23b1ddf0%3BstrokeColor%3Dnone%3B%22%20vertex%3D%221%22%20parent%3D%221%22%3E%3CmxGeometry%20x%3D%22440%22%20y%3D%22200%22%20width%3D%22150%22%20height%3D%2230%22%20as%3D%22geometry%22%2F%3E%3C%2FmxCell%3E%3CmxCell%20id%3D%226%22%20value%3D%22Rating%22%20style%3D%22rounded%3D0%3BwhiteSpace%3Dwrap%3Bhtml%3D1%3Bglass%3D0%3BfontSize%3D12%3BfillColor%3D%23b1ddf0%3BstrokeColor%3Dnone%3B%22%20vertex%3D%221%22%20parent%3D%221%22%3E%3CmxGeometry%20x%3D%22440%22%20y%3D%22230%22%20width%3D%22150%22%20height%3D%2230%22%20as%3D%22geometry%22%2F%3E%3C%2FmxCell%3E%3CmxCell%20id%3D%227%22%20value%3D%22Reviews%22%20style%3D%22rounded%3D0%3BwhiteSpace%3Dwrap%3Bhtml%3D1%3Bglass%3D0%3BfontSize%3D12%3BfillColor%3D%23b1ddf0%3BstrokeColor%3Dnone%3B%22%20vertex%3D%221%22%20parent%3D%221%22%3E%3CmxGeometry%20x%3D%22440%22%20y%3D%22260%22%20width%3D%22150%22%20height%3D%2230%22%20as%3D%22geometry%22%2F%3E%3C%2FmxCell%3E%3C%2Froot%3E%3C%2FmxGraphModel%3E&lt;/span&gt;&lt;span style=&quot;color: rgba(0 , 0 , 0 , 0) ; font-family: monospace ; font-size: 0px&quot;&gt;%3CmxGraphModel%3E%3Croot%3E%3CmxCell%20id%3D%220%22%2F%3E%3CmxCell%20id%3D%221%22%20parent%3D%220%22%2F%3E%3CmxCell%20id%3D%222%22%20value%3D%22Name%22%20style%3D%22rounded%3D0%3BwhiteSpace%3Dwrap%3Bhtml%3D1%3Bglass%3D0%3BfontSize%3D12%3BfillColor%3D%23b1ddf0%3BstrokeColor%3Dnone%3B%22%20vertex%3D%221%22%20parent%3D%221%22%3E%3CmxGeometry%20x%3D%22440%22%20y%3D%22110%22%20width%3D%22150%22%20height%3D%2230%22%20as%3D%22geometry%22%2F%3E%3C%2FmxCell%3E%3CmxCell%20id%3D%223%22%20value%3D%22Description%22%20style%3D%22rounded%3D0%3BwhiteSpace%3Dwrap%3Bhtml%3D1%3Bglass%3D0%3BfontSize%3D12%3BfillColor%3D%23b1ddf0%3BstrokeColor%3Dnone%3B%22%20vertex%3D%221%22%20parent%3D%221%22%3E%3CmxGeometry%20x%3D%22440%22%20y%3D%22140%22%20width%3D%22150%22%20height%3D%2230%22%20as%3D%22geometry%22%2F%3E%3C%2FmxCell%3E%3CmxCell%20id%3D%224%22%20value%3D%22Price%22%20style%3D%22rounded%3D0%3BwhiteSpace%3Dwrap%3Bhtml%3D1%3Bglass%3D0%3BfontSize%3D12%3BfillColor%3D%23b1ddf0%3BstrokeColor%3Dnone%3B%22%20vertex%3D%221%22%20parent%3D%221%22%3E%3CmxGeometry%20x%3D%22440%22%20y%3D%22170%22%20width%3D%22150%22%20height%3D%2230%22%20as%3D%22geometry%22%2F%3E%3C%2FmxCell%3E%3CmxCell%20id%3D%225%22%20value%3D%22Image%22%20style%3D%22rounded%3D0%3BwhiteSpace%3Dwrap%3Bhtml%3D1%3Bglass%3D0%3BfontSize%3D12%3BfillColor%3D%23b1ddf0%3BstrokeColor%3Dnone%3B%22%20vertex%3D%221%22%20parent%3D%221%22%3E%3CmxGeometry%20x%3D%22440%22%20y%3D%22200%22%20width%3D%22150%22%20height%3D%2230%22%20as%3D%22geometry%22%2F%3E%3C%2FmxCell%3E%3CmxCell%20id%3D%226%22%20value%3D%22Rating%22%20style%3D%22rounded%3D0%3BwhiteSpace%3Dwrap%3Bhtml%3D1%3Bglass%3D0%3BfontSize%3D12%3BfillColor%3D%23b1ddf0%3BstrokeColor%3Dnone%3B%22%20vertex%3D%221%22%20parent%3D%221%22%3E%3CmxGeometry%20x%3D%22440%22%20y%3D%22230%22%20width%3D%22150%22%20height%3D%2230%22%20as%3D%22geometry%22%2F%3E%3C%2FmxCell%3E%3CmxCell%20id%3D%227%22%20value%3D%22Reviews%22%20style%3D%22rounded%3D0%3BwhiteSpace%3Dwrap%3Bhtml%3D1%3Bglass%3D0%3BfontSize%3D12%3BfillColor%3D%23b1ddf0%3BstrokeColor%3Dnone%3B%22%20vertex%3D%221%22%20parent%3D%221%22%3E%3CmxGeometry%20x%3D%22440%22%20y%3D%22260%22%20width%3D%22150%22%20height%3D%2230%22%20as%3D%22geometry%22%2F%3E%3C%2FmxCell%3E%3C%2Froot%3E%3C%2FmxGraphModel%3E&lt;/span&gt;" style="rounded=0;whiteSpace=wrap;html=1;glass=0;fontSize=12;fillColor=#b1ddf0;strokeColor=none;" vertex="1" parent="1">
          <mxGeometry x="510" y="380" width="150" height="30" as="geometry" />
        </mxCell>
        <mxCell id="I20sPOyqvfiznxd25Rig-39" value="Delivery Address" style="rounded=0;whiteSpace=wrap;html=1;glass=0;fontSize=12;fillColor=#b1ddf0;strokeColor=none;" vertex="1" parent="1">
          <mxGeometry x="510" y="410" width="150" height="30" as="geometry" />
        </mxCell>
        <mxCell id="I20sPOyqvfiznxd25Rig-40" value="Paid" style="rounded=0;whiteSpace=wrap;html=1;glass=0;fontSize=12;fillColor=#b1ddf0;strokeColor=none;" vertex="1" parent="1">
          <mxGeometry x="510" y="440" width="150" height="30" as="geometry" />
        </mxCell>
        <mxCell id="I20sPOyqvfiznxd25Rig-41" value="Ready to Deliver" style="rounded=0;whiteSpace=wrap;html=1;glass=0;fontSize=12;fillColor=#b1ddf0;strokeColor=none;" vertex="1" parent="1">
          <mxGeometry x="510" y="470" width="150" height="30" as="geometry" />
        </mxCell>
        <mxCell id="I20sPOyqvfiznxd25Rig-42" value="Delivered" style="rounded=0;whiteSpace=wrap;html=1;glass=0;fontSize=12;fillColor=#b1ddf0;strokeColor=none;" vertex="1" parent="1">
          <mxGeometry x="510" y="500" width="150" height="30" as="geometry" />
        </mxCell>
        <mxCell id="I20sPOyqvfiznxd25Rig-84" value="Order Successful" style="rounded=0;whiteSpace=wrap;html=1;glass=0;fontSize=12;fillColor=#b1ddf0;strokeColor=none;" vertex="1" parent="1">
          <mxGeometry x="510" y="530" width="150" height="30" as="geometry" />
        </mxCell>
      </root>
    </mxGraphModel>
  </diagram>
  <diagram id="b8B7kcz1sjrDtaFpY2PL" name="Access and Controls">
    <mxGraphModel dx="2480" dy="1489" grid="1" gridSize="10" guides="1" tooltips="1" connect="1" arrows="1" fold="1" page="1" pageScale="1" pageWidth="850" pageHeight="1100" math="0" shadow="0">
      <root>
        <mxCell id="GdGYiqfBumkBfSTDZsrk-0" />
        <mxCell id="GdGYiqfBumkBfSTDZsrk-1" parent="GdGYiqfBumkBfSTDZsrk-0" />
        <mxCell id="Jd_MitYPmb7TgWppEyR8-0" value="&lt;font style=&quot;font-size: 16px&quot;&gt;Access and Control&lt;/font&gt;" style="rounded=0;whiteSpace=wrap;html=1;glass=0;fillColor=#fa6800;fontColor=#ffffff;fontSize=16;strokeColor=none;" vertex="1" parent="GdGYiqfBumkBfSTDZsrk-1">
          <mxGeometry x="280" y="160" width="470" height="40" as="geometry" />
        </mxCell>
        <mxCell id="Jd_MitYPmb7TgWppEyR8-1" value="&lt;font style=&quot;font-size: 13px&quot;&gt;Login / Register&lt;/font&gt;" style="rounded=0;whiteSpace=wrap;html=1;glass=0;fillColor=#ffe6cc;strokeColor=none;" vertex="1" parent="GdGYiqfBumkBfSTDZsrk-1">
          <mxGeometry x="120" y="230" width="160" height="30" as="geometry" />
        </mxCell>
        <mxCell id="Jd_MitYPmb7TgWppEyR8-2" value="&lt;font style=&quot;font-size: 13px&quot;&gt;Cart Management&lt;/font&gt;" style="rounded=0;whiteSpace=wrap;html=1;glass=0;fillColor=#ffe6cc;strokeColor=none;" vertex="1" parent="GdGYiqfBumkBfSTDZsrk-1">
          <mxGeometry x="120" y="260" width="160" height="30" as="geometry" />
        </mxCell>
        <mxCell id="Jd_MitYPmb7TgWppEyR8-3" value="&lt;font style=&quot;font-size: 13px&quot;&gt;Payment&lt;/font&gt;" style="rounded=0;whiteSpace=wrap;html=1;glass=0;fillColor=#ffe6cc;strokeColor=none;" vertex="1" parent="GdGYiqfBumkBfSTDZsrk-1">
          <mxGeometry x="120" y="290" width="160" height="30" as="geometry" />
        </mxCell>
        <mxCell id="Jd_MitYPmb7TgWppEyR8-4" value="&lt;font style=&quot;font-size: 13px&quot;&gt;Order&lt;/font&gt;" style="rounded=0;whiteSpace=wrap;html=1;glass=0;fillColor=#ffe6cc;strokeColor=none;" vertex="1" parent="GdGYiqfBumkBfSTDZsrk-1">
          <mxGeometry x="120" y="320" width="160" height="30" as="geometry" />
        </mxCell>
        <mxCell id="Jd_MitYPmb7TgWppEyR8-5" value="&lt;font style=&quot;font-size: 13px&quot;&gt;User Orders&lt;/font&gt;" style="rounded=0;whiteSpace=wrap;html=1;glass=0;fillColor=#ffe6cc;strokeColor=none;" vertex="1" parent="GdGYiqfBumkBfSTDZsrk-1">
          <mxGeometry x="120" y="380" width="160" height="30" as="geometry" />
        </mxCell>
        <mxCell id="Jd_MitYPmb7TgWppEyR8-6" value="&lt;font style=&quot;font-size: 13px&quot;&gt;Accept Order&lt;/font&gt;" style="rounded=0;whiteSpace=wrap;html=1;glass=0;fillColor=#ffe6cc;strokeColor=none;" vertex="1" parent="GdGYiqfBumkBfSTDZsrk-1">
          <mxGeometry x="120" y="350" width="160" height="30" as="geometry" />
        </mxCell>
        <mxCell id="Jd_MitYPmb7TgWppEyR8-7" value="Admin" style="rounded=0;whiteSpace=wrap;html=1;glass=0;fontSize=15;fillColor=#f0a30a;fontColor=#ffffff;strokeColor=none;" vertex="1" parent="GdGYiqfBumkBfSTDZsrk-1">
          <mxGeometry x="280" y="200" width="150" height="30" as="geometry" />
        </mxCell>
        <mxCell id="Jd_MitYPmb7TgWppEyR8-8" value="Staff" style="rounded=0;whiteSpace=wrap;html=1;glass=0;fontSize=15;fillColor=#f0a30a;fontColor=#ffffff;strokeColor=none;" vertex="1" parent="GdGYiqfBumkBfSTDZsrk-1">
          <mxGeometry x="440" y="200" width="150" height="30" as="geometry" />
        </mxCell>
        <mxCell id="Jd_MitYPmb7TgWppEyR8-9" value="Customer" style="rounded=0;whiteSpace=wrap;html=1;fontSize=15;fillColor=#f0a30a;fontColor=#ffffff;strokeColor=none;" vertex="1" parent="GdGYiqfBumkBfSTDZsrk-1">
          <mxGeometry x="600" y="200" width="150" height="30" as="geometry" />
        </mxCell>
        <mxCell id="Jd_MitYPmb7TgWppEyR8-10" value="&lt;span style=&quot;color: rgb(32 , 33 , 36) ; font-family: &amp;#34;arial&amp;#34; , sans-serif ; font-size: 16px ; text-align: left ; background-color: rgb(255 , 255 , 255)&quot;&gt;✓&lt;/span&gt;" style="rounded=0;html=1;glass=0;fontSize=12;fillColor=#fad7ac;whiteSpace=wrap;strokeColor=none;" vertex="1" parent="GdGYiqfBumkBfSTDZsrk-1">
          <mxGeometry x="280" y="230" width="150" height="30" as="geometry" />
        </mxCell>
        <mxCell id="Jd_MitYPmb7TgWppEyR8-11" value="&lt;span style=&quot;color: rgb(32 , 33 , 36) ; font-family: &amp;#34;arial&amp;#34; , sans-serif ; font-size: 16px ; text-align: left ; background-color: rgb(255 , 255 , 255)&quot;&gt;✓&lt;/span&gt;" style="rounded=0;html=1;glass=0;fontSize=12;fillColor=#fad7ac;whiteSpace=wrap;strokeColor=none;" vertex="1" parent="GdGYiqfBumkBfSTDZsrk-1">
          <mxGeometry x="440" y="230" width="150" height="30" as="geometry" />
        </mxCell>
        <mxCell id="Jd_MitYPmb7TgWppEyR8-12" value="&lt;span style=&quot;color: rgb(32 , 33 , 36) ; font-family: &amp;#34;arial&amp;#34; , sans-serif ; font-size: 16px ; text-align: left ; background-color: rgb(255 , 255 , 255)&quot;&gt;✓&lt;/span&gt;" style="rounded=0;html=1;glass=0;fontSize=12;fillColor=#fad7ac;whiteSpace=wrap;strokeColor=none;" vertex="1" parent="GdGYiqfBumkBfSTDZsrk-1">
          <mxGeometry x="600" y="230" width="150" height="30" as="geometry" />
        </mxCell>
        <mxCell id="Jd_MitYPmb7TgWppEyR8-13" value="&lt;span style=&quot;color: rgb(32 , 33 , 36) ; font-family: &amp;#34;arial&amp;#34; , sans-serif ; font-size: 16px ; text-align: left ; background-color: rgb(255 , 255 , 255)&quot;&gt;✓&lt;/span&gt;" style="rounded=0;html=1;glass=0;fontSize=12;fillColor=#fad7ac;whiteSpace=wrap;strokeColor=none;" vertex="1" parent="GdGYiqfBumkBfSTDZsrk-1">
          <mxGeometry x="280" y="260" width="150" height="30" as="geometry" />
        </mxCell>
        <mxCell id="Jd_MitYPmb7TgWppEyR8-14" value="&lt;span style=&quot;color: rgb(32 , 33 , 36) ; font-family: &amp;#34;arial&amp;#34; , sans-serif ; font-size: 16px ; text-align: left ; background-color: rgb(255 , 255 , 255)&quot;&gt;✓&lt;/span&gt;" style="rounded=0;html=1;glass=0;fontSize=12;fillColor=#fad7ac;whiteSpace=wrap;strokeColor=none;" vertex="1" parent="GdGYiqfBumkBfSTDZsrk-1">
          <mxGeometry x="440" y="260" width="150" height="30" as="geometry" />
        </mxCell>
        <mxCell id="Jd_MitYPmb7TgWppEyR8-15" value="&lt;span style=&quot;color: rgb(32 , 33 , 36) ; font-family: &amp;#34;arial&amp;#34; , sans-serif ; font-size: 16px ; text-align: left ; background-color: rgb(255 , 255 , 255)&quot;&gt;✓&lt;/span&gt;" style="rounded=0;html=1;glass=0;fontSize=12;fillColor=#fad7ac;whiteSpace=wrap;strokeColor=none;" vertex="1" parent="GdGYiqfBumkBfSTDZsrk-1">
          <mxGeometry x="600" y="260" width="150" height="30" as="geometry" />
        </mxCell>
        <mxCell id="Jd_MitYPmb7TgWppEyR8-16" value="&lt;span style=&quot;color: rgb(32 , 33 , 36) ; font-family: &amp;#34;arial&amp;#34; , sans-serif ; font-size: 16px ; text-align: left ; background-color: rgb(255 , 255 , 255)&quot;&gt;✓&lt;/span&gt;" style="rounded=0;html=1;glass=0;fontSize=12;fillColor=#fad7ac;whiteSpace=wrap;strokeColor=none;" vertex="1" parent="GdGYiqfBumkBfSTDZsrk-1">
          <mxGeometry x="280" y="290" width="150" height="30" as="geometry" />
        </mxCell>
        <mxCell id="Jd_MitYPmb7TgWppEyR8-17" value="&lt;span style=&quot;color: rgb(32 , 33 , 36) ; font-family: &amp;#34;arial&amp;#34; , sans-serif ; font-size: 16px ; text-align: left ; background-color: rgb(255 , 255 , 255)&quot;&gt;✓&lt;/span&gt;" style="rounded=0;html=1;glass=0;fontSize=12;fillColor=#fad7ac;whiteSpace=wrap;strokeColor=none;" vertex="1" parent="GdGYiqfBumkBfSTDZsrk-1">
          <mxGeometry x="440" y="290" width="150" height="30" as="geometry" />
        </mxCell>
        <mxCell id="Jd_MitYPmb7TgWppEyR8-18" value="&lt;span style=&quot;color: rgb(32 , 33 , 36) ; font-family: &amp;#34;arial&amp;#34; , sans-serif ; font-size: 16px ; text-align: left ; background-color: rgb(255 , 255 , 255)&quot;&gt;✓&lt;/span&gt;" style="rounded=0;html=1;glass=0;fontSize=12;fillColor=#fad7ac;whiteSpace=wrap;strokeColor=none;" vertex="1" parent="GdGYiqfBumkBfSTDZsrk-1">
          <mxGeometry x="600" y="290" width="150" height="30" as="geometry" />
        </mxCell>
        <mxCell id="Jd_MitYPmb7TgWppEyR8-19" value="&lt;span style=&quot;color: rgb(32 , 33 , 36) ; font-family: &amp;#34;arial&amp;#34; , sans-serif ; font-size: 16px ; text-align: left ; background-color: rgb(255 , 255 , 255)&quot;&gt;✓&lt;/span&gt;" style="rounded=0;html=1;glass=0;fontSize=12;fillColor=#fad7ac;whiteSpace=wrap;strokeColor=none;" vertex="1" parent="GdGYiqfBumkBfSTDZsrk-1">
          <mxGeometry x="280" y="320" width="150" height="30" as="geometry" />
        </mxCell>
        <mxCell id="Jd_MitYPmb7TgWppEyR8-20" value="&lt;span style=&quot;color: rgb(32 , 33 , 36) ; font-family: &amp;#34;arial&amp;#34; , sans-serif ; font-size: 16px ; text-align: left ; background-color: rgb(255 , 255 , 255)&quot;&gt;✓&lt;/span&gt;" style="rounded=0;html=1;glass=0;fontSize=12;fillColor=#fad7ac;whiteSpace=wrap;strokeColor=none;" vertex="1" parent="GdGYiqfBumkBfSTDZsrk-1">
          <mxGeometry x="440" y="320" width="150" height="30" as="geometry" />
        </mxCell>
        <mxCell id="Jd_MitYPmb7TgWppEyR8-21" value="&lt;span style=&quot;color: rgb(32 , 33 , 36) ; font-family: &amp;#34;arial&amp;#34; , sans-serif ; font-size: 16px ; text-align: left ; background-color: rgb(255 , 255 , 255)&quot;&gt;✓&lt;/span&gt;" style="rounded=0;html=1;glass=0;fontSize=12;fillColor=#fad7ac;whiteSpace=wrap;strokeColor=none;" vertex="1" parent="GdGYiqfBumkBfSTDZsrk-1">
          <mxGeometry x="600" y="320" width="150" height="30" as="geometry" />
        </mxCell>
        <mxCell id="Jd_MitYPmb7TgWppEyR8-22" value="&lt;span style=&quot;color: rgb(32 , 33 , 36) ; font-family: &amp;#34;arial&amp;#34; , sans-serif ; font-size: 16px ; text-align: left ; background-color: rgb(255 , 255 , 255)&quot;&gt;✓&lt;/span&gt;" style="rounded=0;html=1;glass=0;fontSize=12;fillColor=#fad7ac;whiteSpace=wrap;strokeColor=none;" vertex="1" parent="GdGYiqfBumkBfSTDZsrk-1">
          <mxGeometry x="280" y="350" width="150" height="30" as="geometry" />
        </mxCell>
        <mxCell id="Jd_MitYPmb7TgWppEyR8-23" value="" style="rounded=0;html=1;glass=0;fontSize=12;fillColor=#fad7ac;whiteSpace=wrap;strokeColor=none;" vertex="1" parent="GdGYiqfBumkBfSTDZsrk-1">
          <mxGeometry x="440" y="350" width="150" height="30" as="geometry" />
        </mxCell>
        <mxCell id="Jd_MitYPmb7TgWppEyR8-24" value="" style="rounded=0;html=1;glass=0;fontSize=12;fillColor=#fad7ac;whiteSpace=wrap;strokeColor=none;" vertex="1" parent="GdGYiqfBumkBfSTDZsrk-1">
          <mxGeometry x="600" y="350" width="150" height="30" as="geometry" />
        </mxCell>
        <mxCell id="Jd_MitYPmb7TgWppEyR8-25" value="&lt;span style=&quot;color: rgb(32 , 33 , 36) ; font-family: &amp;#34;arial&amp;#34; , sans-serif ; font-size: 16px ; text-align: left ; background-color: rgb(255 , 255 , 255)&quot;&gt;✓&lt;/span&gt;" style="rounded=0;html=1;glass=0;fontSize=12;fillColor=#fad7ac;whiteSpace=wrap;strokeColor=none;" vertex="1" parent="GdGYiqfBumkBfSTDZsrk-1">
          <mxGeometry x="280" y="380" width="150" height="30" as="geometry" />
        </mxCell>
        <mxCell id="Jd_MitYPmb7TgWppEyR8-26" value="&lt;span style=&quot;color: rgb(32 , 33 , 36) ; font-family: &amp;#34;arial&amp;#34; , sans-serif ; font-size: 16px ; text-align: left ; background-color: rgb(255 , 255 , 255)&quot;&gt;✓&lt;/span&gt;" style="rounded=0;html=1;glass=0;fontSize=12;fillColor=#fad7ac;whiteSpace=wrap;strokeColor=none;" vertex="1" parent="GdGYiqfBumkBfSTDZsrk-1">
          <mxGeometry x="440" y="380" width="150" height="30" as="geometry" />
        </mxCell>
        <mxCell id="Jd_MitYPmb7TgWppEyR8-27" value="&lt;span style=&quot;color: rgb(32 , 33 , 36) ; font-family: &amp;#34;arial&amp;#34; , sans-serif ; font-size: 16px ; text-align: left ; background-color: rgb(255 , 255 , 255)&quot;&gt;✓&lt;/span&gt;" style="rounded=0;html=1;glass=0;fontSize=12;fillColor=#fad7ac;whiteSpace=wrap;strokeColor=none;" vertex="1" parent="GdGYiqfBumkBfSTDZsrk-1">
          <mxGeometry x="600" y="380" width="150" height="30" as="geometry" />
        </mxCell>
        <mxCell id="Jd_MitYPmb7TgWppEyR8-28" value="&lt;font style=&quot;font-size: 13px&quot;&gt;Accepted Orders&lt;/font&gt;" style="rounded=0;whiteSpace=wrap;html=1;glass=0;fillColor=#ffe6cc;strokeColor=none;" vertex="1" parent="GdGYiqfBumkBfSTDZsrk-1">
          <mxGeometry x="120" y="410" width="160" height="30" as="geometry" />
        </mxCell>
        <mxCell id="Jd_MitYPmb7TgWppEyR8-29" value="&lt;font style=&quot;font-size: 13px&quot;&gt;All Orders&lt;/font&gt;" style="rounded=0;whiteSpace=wrap;html=1;glass=0;fillColor=#ffe6cc;strokeColor=none;" vertex="1" parent="GdGYiqfBumkBfSTDZsrk-1">
          <mxGeometry x="120" y="440" width="160" height="30" as="geometry" />
        </mxCell>
        <mxCell id="Jd_MitYPmb7TgWppEyR8-30" value="&lt;font style=&quot;font-size: 13px&quot;&gt;Update Products&lt;/font&gt;" style="rounded=0;whiteSpace=wrap;html=1;glass=0;fillColor=#ffe6cc;strokeColor=none;" vertex="1" parent="GdGYiqfBumkBfSTDZsrk-1">
          <mxGeometry x="120" y="470" width="160" height="30" as="geometry" />
        </mxCell>
        <mxCell id="Jd_MitYPmb7TgWppEyR8-31" value="&lt;span style=&quot;font-size: 13px&quot;&gt;Update Deals&lt;/span&gt;" style="rounded=0;whiteSpace=wrap;html=1;glass=0;fillColor=#ffe6cc;strokeColor=none;" vertex="1" parent="GdGYiqfBumkBfSTDZsrk-1">
          <mxGeometry x="120" y="500" width="160" height="30" as="geometry" />
        </mxCell>
        <mxCell id="Jd_MitYPmb7TgWppEyR8-32" value="&lt;font style=&quot;font-size: 13px&quot;&gt;Deliver Order&lt;/font&gt;" style="rounded=0;whiteSpace=wrap;html=1;glass=0;fillColor=#ffe6cc;strokeColor=none;" vertex="1" parent="GdGYiqfBumkBfSTDZsrk-1">
          <mxGeometry x="120" y="530" width="160" height="30" as="geometry" />
        </mxCell>
        <mxCell id="Jd_MitYPmb7TgWppEyR8-33" value="&lt;span style=&quot;color: rgb(32 , 33 , 36) ; font-family: &amp;#34;arial&amp;#34; , sans-serif ; font-size: 16px ; text-align: left ; background-color: rgb(255 , 255 , 255)&quot;&gt;✓&lt;/span&gt;" style="rounded=0;html=1;glass=0;fontSize=12;fillColor=#fad7ac;whiteSpace=wrap;strokeColor=none;" vertex="1" parent="GdGYiqfBumkBfSTDZsrk-1">
          <mxGeometry x="280" y="410" width="150" height="30" as="geometry" />
        </mxCell>
        <mxCell id="Jd_MitYPmb7TgWppEyR8-34" value="&lt;span style=&quot;color: rgb(32 , 33 , 36) ; font-family: &amp;#34;arial&amp;#34; , sans-serif ; font-size: 16px ; text-align: left ; background-color: rgb(255 , 255 , 255)&quot;&gt;✓&lt;/span&gt;" style="rounded=0;html=1;glass=0;fontSize=12;fillColor=#fad7ac;whiteSpace=wrap;strokeColor=none;" vertex="1" parent="GdGYiqfBumkBfSTDZsrk-1">
          <mxGeometry x="440" y="410" width="150" height="30" as="geometry" />
        </mxCell>
        <mxCell id="Jd_MitYPmb7TgWppEyR8-35" value="" style="rounded=0;html=1;glass=0;fontSize=12;fillColor=#fad7ac;whiteSpace=wrap;strokeColor=none;" vertex="1" parent="GdGYiqfBumkBfSTDZsrk-1">
          <mxGeometry x="600" y="410" width="150" height="30" as="geometry" />
        </mxCell>
        <mxCell id="Jd_MitYPmb7TgWppEyR8-36" value="&lt;span style=&quot;color: rgb(32 , 33 , 36) ; font-family: &amp;#34;arial&amp;#34; , sans-serif ; font-size: 16px ; text-align: left ; background-color: rgb(255 , 255 , 255)&quot;&gt;✓&lt;/span&gt;" style="rounded=0;html=1;glass=0;fontSize=12;fillColor=#fad7ac;whiteSpace=wrap;strokeColor=none;" vertex="1" parent="GdGYiqfBumkBfSTDZsrk-1">
          <mxGeometry x="280" y="440" width="150" height="30" as="geometry" />
        </mxCell>
        <mxCell id="Jd_MitYPmb7TgWppEyR8-37" value="" style="rounded=0;html=1;glass=0;fontSize=12;fillColor=#fad7ac;whiteSpace=wrap;strokeColor=none;" vertex="1" parent="GdGYiqfBumkBfSTDZsrk-1">
          <mxGeometry x="440" y="440" width="150" height="30" as="geometry" />
        </mxCell>
        <mxCell id="Jd_MitYPmb7TgWppEyR8-38" value="" style="rounded=0;html=1;glass=0;fontSize=12;fillColor=#fad7ac;whiteSpace=wrap;strokeColor=none;" vertex="1" parent="GdGYiqfBumkBfSTDZsrk-1">
          <mxGeometry x="600" y="440" width="150" height="30" as="geometry" />
        </mxCell>
        <mxCell id="Jd_MitYPmb7TgWppEyR8-39" value="&lt;span style=&quot;color: rgb(32 , 33 , 36) ; font-family: &amp;#34;arial&amp;#34; , sans-serif ; font-size: 16px ; text-align: left ; background-color: rgb(255 , 255 , 255)&quot;&gt;✓&lt;/span&gt;" style="rounded=0;html=1;glass=0;fontSize=12;fillColor=#fad7ac;whiteSpace=wrap;strokeColor=none;" vertex="1" parent="GdGYiqfBumkBfSTDZsrk-1">
          <mxGeometry x="280" y="470" width="150" height="30" as="geometry" />
        </mxCell>
        <mxCell id="Jd_MitYPmb7TgWppEyR8-40" value="" style="rounded=0;html=1;glass=0;fontSize=12;fillColor=#fad7ac;whiteSpace=wrap;strokeColor=none;" vertex="1" parent="GdGYiqfBumkBfSTDZsrk-1">
          <mxGeometry x="440" y="470" width="150" height="30" as="geometry" />
        </mxCell>
        <mxCell id="Jd_MitYPmb7TgWppEyR8-41" value="" style="rounded=0;html=1;glass=0;fontSize=12;fillColor=#fad7ac;whiteSpace=wrap;strokeColor=none;" vertex="1" parent="GdGYiqfBumkBfSTDZsrk-1">
          <mxGeometry x="600" y="470" width="150" height="30" as="geometry" />
        </mxCell>
        <mxCell id="Jd_MitYPmb7TgWppEyR8-42" value="&lt;span style=&quot;color: rgb(32 , 33 , 36) ; font-family: &amp;#34;arial&amp;#34; , sans-serif ; font-size: 16px ; text-align: left ; background-color: rgb(255 , 255 , 255)&quot;&gt;✓&lt;/span&gt;" style="rounded=0;html=1;glass=0;fontSize=12;fillColor=#fad7ac;whiteSpace=wrap;strokeColor=none;" vertex="1" parent="GdGYiqfBumkBfSTDZsrk-1">
          <mxGeometry x="280" y="500" width="150" height="30" as="geometry" />
        </mxCell>
        <mxCell id="Jd_MitYPmb7TgWppEyR8-43" value="" style="rounded=0;html=1;glass=0;fontSize=12;fillColor=#fad7ac;whiteSpace=wrap;strokeColor=none;" vertex="1" parent="GdGYiqfBumkBfSTDZsrk-1">
          <mxGeometry x="440" y="500" width="150" height="30" as="geometry" />
        </mxCell>
        <mxCell id="Jd_MitYPmb7TgWppEyR8-44" value="" style="rounded=0;html=1;glass=0;fontSize=12;fillColor=#fad7ac;whiteSpace=wrap;strokeColor=none;" vertex="1" parent="GdGYiqfBumkBfSTDZsrk-1">
          <mxGeometry x="600" y="500" width="150" height="30" as="geometry" />
        </mxCell>
        <mxCell id="Jd_MitYPmb7TgWppEyR8-45" value="&lt;span style=&quot;color: rgb(32 , 33 , 36) ; font-family: &amp;#34;arial&amp;#34; , sans-serif ; font-size: 16px ; text-align: left ; background-color: rgb(255 , 255 , 255)&quot;&gt;✓&lt;/span&gt;" style="rounded=0;html=1;glass=0;fontSize=12;fillColor=#fad7ac;whiteSpace=wrap;strokeColor=none;" vertex="1" parent="GdGYiqfBumkBfSTDZsrk-1">
          <mxGeometry x="280" y="530" width="150" height="30" as="geometry" />
        </mxCell>
        <mxCell id="Jd_MitYPmb7TgWppEyR8-46" value="&lt;span style=&quot;color: rgb(32 , 33 , 36) ; font-family: &amp;#34;arial&amp;#34; , sans-serif ; font-size: 16px ; text-align: left ; background-color: rgb(255 , 255 , 255)&quot;&gt;✓&lt;/span&gt;" style="rounded=0;html=1;glass=0;fontSize=12;fillColor=#fad7ac;whiteSpace=wrap;strokeColor=none;" vertex="1" parent="GdGYiqfBumkBfSTDZsrk-1">
          <mxGeometry x="440" y="530" width="150" height="30" as="geometry" />
        </mxCell>
        <mxCell id="Jd_MitYPmb7TgWppEyR8-47" value="" style="rounded=0;html=1;glass=0;fontSize=12;fillColor=#fad7ac;whiteSpace=wrap;strokeColor=none;" vertex="1" parent="GdGYiqfBumkBfSTDZsrk-1">
          <mxGeometry x="600" y="530" width="150" height="30" as="geometry" />
        </mxCell>
      </root>
    </mxGraphModel>
  </diagram>
  <diagram id="JM-0QrOW5Drb5OklThry" name="Project Breakdown">
    <mxGraphModel dx="868" dy="521" grid="1" gridSize="10" guides="1" tooltips="1" connect="1" arrows="1" fold="1" page="1" pageScale="1" pageWidth="850" pageHeight="1100" math="0" shadow="0">
      <root>
        <mxCell id="NicjyYpOeu8Dxe6NpYTT-0" />
        <mxCell id="NicjyYpOeu8Dxe6NpYTT-1" parent="NicjyYpOeu8Dxe6NpYTT-0" />
        <mxCell id="TjoiifD5DtH69wgMe40B-0" value="Frontend" style="rounded=0;whiteSpace=wrap;html=1;glass=0;fontSize=12;" vertex="1" parent="NicjyYpOeu8Dxe6NpYTT-1">
          <mxGeometry x="80" y="110" width="210" height="200" as="geometry" />
        </mxCell>
        <mxCell id="TjoiifD5DtH69wgMe40B-1" value="Products Page" style="rounded=0;whiteSpace=wrap;html=1;glass=0;fontSize=12;" vertex="1" parent="NicjyYpOeu8Dxe6NpYTT-1">
          <mxGeometry x="290" y="110" width="190" height="70" as="geometry" />
        </mxCell>
        <mxCell id="TjoiifD5DtH69wgMe40B-2" value="Cart Screen&amp;nbsp;" style="rounded=0;whiteSpace=wrap;html=1;glass=0;fontSize=12;" vertex="1" parent="NicjyYpOeu8Dxe6NpYTT-1">
          <mxGeometry x="290" y="180" width="190" height="70" as="geometry" />
        </mxCell>
        <mxCell id="TjoiifD5DtH69wgMe40B-3" value="Backend" style="rounded=0;whiteSpace=wrap;html=1;glass=0;fontSize=12;" vertex="1" parent="NicjyYpOeu8Dxe6NpYTT-1">
          <mxGeometry x="80" y="310" width="210" height="220" as="geometry" />
        </mxCell>
        <mxCell id="TjoiifD5DtH69wgMe40B-4" value="Authentication" style="rounded=0;whiteSpace=wrap;html=1;glass=0;fontSize=12;" vertex="1" parent="NicjyYpOeu8Dxe6NpYTT-1">
          <mxGeometry x="290" y="310" width="190" height="50" as="geometry" />
        </mxCell>
        <mxCell id="TjoiifD5DtH69wgMe40B-5" value="Order Mangement" style="rounded=0;whiteSpace=wrap;html=1;glass=0;fontSize=12;" vertex="1" parent="NicjyYpOeu8Dxe6NpYTT-1">
          <mxGeometry x="290" y="410" width="190" height="60" as="geometry" />
        </mxCell>
        <mxCell id="TjoiifD5DtH69wgMe40B-6" value="Payment" style="rounded=0;whiteSpace=wrap;html=1;glass=0;fontSize=12;" vertex="1" parent="NicjyYpOeu8Dxe6NpYTT-1">
          <mxGeometry x="290" y="360" width="190" height="50" as="geometry" />
        </mxCell>
        <mxCell id="TjoiifD5DtH69wgMe40B-7" value="Admin Controls" style="rounded=0;whiteSpace=wrap;html=1;glass=0;fontSize=12;" vertex="1" parent="NicjyYpOeu8Dxe6NpYTT-1">
          <mxGeometry x="290" y="470" width="190" height="60" as="geometry" />
        </mxCell>
        <mxCell id="TjoiifD5DtH69wgMe40B-9" value="React&lt;br&gt;React Router&lt;br&gt;Bootstrap&lt;br&gt;Context API&lt;br&gt;Local Storage" style="rounded=0;whiteSpace=wrap;html=1;glass=0;fontSize=12;" vertex="1" parent="NicjyYpOeu8Dxe6NpYTT-1">
          <mxGeometry x="480" y="110" width="190" height="200" as="geometry" />
        </mxCell>
        <mxCell id="l-HT8EaNAH0w82tbE14B-0" value="Login and Register" style="rounded=0;whiteSpace=wrap;html=1;glass=0;fontSize=12;" vertex="1" parent="NicjyYpOeu8Dxe6NpYTT-1">
          <mxGeometry x="290" y="250" width="190" height="60" as="geometry" />
        </mxCell>
        <mxCell id="XCmyprGsm8n5oXNJLvQk-0" value="NodeJS&lt;br&gt;Express&lt;br&gt;bcrypt&lt;br&gt;mongodb" style="rounded=0;whiteSpace=wrap;html=1;glass=0;fontSize=12;" vertex="1" parent="NicjyYpOeu8Dxe6NpYTT-1">
          <mxGeometry x="480" y="310" width="190" height="220" as="geometry" />
        </mxCell>
      </root>
    </mxGraphModel>
  </diagram>
</mxfile>
